<?xml version="1.0" encoding="UTF-8"?>
<svg width="20px" height="20px" viewBox="0 0 20 20" version="1.1" xmlns="http://www.w3.org/2000/svg" xmlns:xlink="http://www.w3.org/1999/xlink">
    <!-- Generator: Sketch 60.1 (88133) - https://sketch.com -->
    <title>美国 (1)</title>
    <desc>Created with Sketch.</desc>
    <g id="页面-1" stroke="none" stroke-width="1" fill="none" fill-rule="evenodd">
        <g id="首页最新备份-19" transform="translate(-1540.000000, -53.000000)" fill-rule="nonzero">
            <g id="美国-(1)-2" transform="translate(1540.000000, 53.000000)">
                <g id="美国-(1)">
                    <path d="M0.296583851,7.6234472 C1.24448297,3.70860351 4.46171455,0.753115619 8.44274926,0.140027836 C12.423784,-0.473059947 16.3811606,1.37752305 18.4629931,4.82578167 C20.5448256,8.27404028 20.3393209,12.6378982 17.9426466,15.875253 C15.5459723,19.1126078 11.432198,20.5831006 7.52639752,19.5986025 C4.97744713,18.9730297 2.78235177,17.3585545 1.42584511,15.1116947 C0.0693384488,12.8648349 -0.336991335,10.1704203 0.296583851,7.6234472" id="路径" fill="#F7F8F8"></path>
                    <path d="M19.0543478,6.26940994 L11.3897516,6.26940994 L11.3897516,7.74767081 L19.5388199,7.74767081 C19.4149682,7.24336786 19.2530122,6.74919442 19.0543478,6.26940994 M17.0916149,3.20108696 L11.3897516,3.20108696 L11.3897516,4.71661491 L18.2717391,4.71661491 C17.9282223,4.17451873 17.533002,3.66697264 17.0916149,3.20108696 M2.75621118,16.8656832 L17.0543478,16.8656832 C17.5124681,16.3982717 17.9281792,15.8911042 18.2965839,15.3501553 L1.5636646,15.3501553 C1.92398023,15.8971068 2.34030684,16.4050253 2.80590062,16.8656832 M12.2717391,0.39363354 C11.9860248,0.319099379 11.6878882,0.256987578 11.3897516,0.207298137 L11.3897516,1.68555901 L15.2779503,1.68555901 C14.3551805,1.10089786 13.3380567,0.680598769 12.2717391,0.443322981 M19.7251553,9.3128882 L11.3897516,9.3128882 L11.3897516,10.8284161 L19.7624224,10.8284161 C19.8058438,10.3241732 19.8058438,9.81713113 19.7624224,9.3128882 M0.76863354,13.8097826 L19.0295031,13.8097826 C19.2275848,13.3437642 19.3855085,12.8616815 19.5015528,12.3687888 L19.5015528,12.2942547 L0.27173913,12.2942547 C0.392288803,12.8131137 0.55857032,13.3202723 0.76863354,13.8097826 M7.52639752,19.5986025 C8.09844401,19.7650611 8.68487652,19.8773567 9.27795031,19.9340062 L10.5201863,19.9340062 C12.1769511,19.8350749 13.7807393,19.3133091 15.1785714,18.4184783 L4.5947205,18.4184783 C5.49770638,18.9895795 6.48799606,19.4091938 7.52639752,19.6607143" id="形状" fill="#E72D14"></path>
                    <path d="M10.6319876,10.2197205 L10.4208075,10.0706522 L10.2096273,10.2197205 L10.2841615,9.97127329 L10.0729814,9.82220497 L10.3338509,9.82220497 L10.4208075,9.5613354 L10.507764,9.82220497 L10.7686335,9.82220497 L10.5574534,9.97127329 L10.6319876,10.2197205 Z M9.58850932,2.24456522 L9.66304348,2.54270186 L9.45186335,2.38121118 L9.24068323,2.54270186 L9.31521739,2.2818323 L9.10403727,2.13276398 L9.36490683,2.13276398 L9.45186335,1.87189441 L9.53881988,2.13276398 L9.79968944,2.13276398 L9.58850932,2.24456522 Z M9.58850932,4.5302795 L9.66304348,4.77872671 L9.45186335,4.61723602 L9.24068323,4.77872671 L9.31521739,4.5302795 L9.10403727,4.36878882 L9.36490683,4.36878882 L9.45186335,4.12034161 L9.53881988,4.36878882 L9.79968944,4.36878882 L9.58850932,4.5302795 Z M9.58850932,6.75388199 L9.67546584,7.01475155 L9.45186335,6.85326087 L9.24068323,7.01475155 L9.32763975,6.75388199 L9.10403727,6.60481366 L9.37732919,6.60481366 L9.45186335,6.35636646 L9.53881988,6.60481366 L9.77484472,6.60481366 L9.58850932,6.75388199 Z M9.58850932,9.23835404 L9.37732919,9.08928571 L9.16614907,9.23835404 L9.24068323,8.98990683 L9.06677019,8.75388199 L9.32763975,8.75388199 L9.41459627,8.50543478 L9.48913043,8.75388199 L9.76242236,8.75388199 L9.53881988,8.91537267 L9.58850932,9.23835404 Z M8.56987578,3.35015528 L8.6568323,3.59860248 L8.44565217,3.44953416 L8.22204969,3.59860248 L8.30900621,3.35015528 L8.09782609,3.20108696 L8.35869565,3.20108696 L8.44565217,2.94021739 L8.52018634,3.20108696 L8.79347826,3.20108696 L8.56987578,3.35015528 Z M8.56987578,5.5613354 L8.6568323,5.80978261 L8.44565217,5.66071429 L8.22204969,5.80978261 L8.30900621,5.5613354 L8.09782609,5.39984472 L8.35869565,5.39984472 L8.44565217,5.15139752 L8.52018634,5.39984472 L8.79347826,5.39984472 L8.56987578,5.5613354 Z M8.56987578,7.82220497 L8.6568323,8.07065217 L8.44565217,7.90916149 L8.22204969,8.07065217 L8.30900621,7.82220497 L8.09782609,7.66071429 L8.35869565,7.66071429 L8.44565217,7.41226708 L8.52018634,7.66071429 L8.79347826,7.66071429 L8.56987578,7.82220497 Z M8.6568323,10.2197205 L8.44565217,10.0706522 L8.22204969,10.2197205 L8.30900621,9.97127329 L8.09782609,9.82220497 L8.35869565,9.82220497 L8.44565217,9.5613354 L8.52018634,9.82220497 L8.79347826,9.82220497 L8.56987578,9.99611801 L8.6568323,10.2197205 Z M7.60093168,2.24456522 L7.6878882,2.54270186 L7.47670807,2.38121118 L7.25310559,2.54270186 L7.34006211,2.2818323 L7.12888199,2.13276398 L7.41459627,2.13276398 L7.5015528,1.87189441 L7.57608696,2.13276398 L7.84937888,2.13276398 L7.60093168,2.24456522 Z M7.60093168,4.5302795 L7.6878882,4.77872671 L7.47670807,4.61723602 L7.25310559,4.77872671 L7.34006211,4.5302795 L7.12888199,4.36878882 L7.41459627,4.36878882 L7.5015528,4.12034161 L7.57608696,4.36878882 L7.84937888,4.36878882 L7.60093168,4.5302795 Z M7.60093168,6.75388199 L7.67546584,7.01475155 L7.41459627,6.85326087 L7.20341615,7.01475155 L7.27795031,6.75388199 L7.06677019,6.60481366 L7.41459627,6.60481366 L7.41459627,6.35636646 L7.5015528,6.60481366 L7.76242236,6.60481366 L7.60093168,6.75388199 Z M7.60093168,9.23835404 L7.41459627,9.06444099 L7.19099379,9.21350932 L7.27795031,8.96506211 L7.09161491,8.75388199 L7.41459627,8.75388199 L7.41459627,8.55512422 L7.48913043,8.80357143 L7.75,8.80357143 L7.53881988,8.96506211 L7.60093168,9.23835404 Z M6.54503106,1.16381988 L6.63198758,1.42468944 L6.45807453,1.30046584 L6.24689441,1.46195652 L6.33385093,1.20108696 L6.17236025,0.989906832 L6.43322981,0.989906832 L6.50776398,0.741459627 L6.5947205,0.989906832 L6.85559006,0.989906832 L6.54503106,1.16381988 Z M6.54503106,3.375 L6.63198758,3.6234472 L6.40838509,3.47437888 L6.19720497,3.6234472 L6.28416149,3.375 L6.17236025,3.20108696 L6.43322981,3.20108696 L6.50776398,2.94021739 L6.5947205,3.20108696 L6.85559006,3.20108696 L6.54503106,3.375 Z M6.54503106,5.58618012 L6.63198758,5.83462733 L6.40838509,5.68555901 L6.19720497,5.83462733 L6.28416149,5.58618012 L6.17236025,5.39984472 L6.43322981,5.39984472 L6.50776398,5.15139752 L6.5947205,5.39984472 L6.85559006,5.39984472 L6.54503106,5.58618012 Z M6.54503106,7.84704969 L6.63198758,8.09549689 L6.40838509,7.93400621 L6.19720497,8.09549689 L6.28416149,7.84704969 L6.17236025,7.66071429 L6.43322981,7.66071429 L6.50776398,7.41226708 L6.5947205,7.66071429 L6.85559006,7.66071429 L6.54503106,7.84704969 Z M6.63198758,10.2445652 L6.40838509,10.0954969 L6.19720497,10.2445652 L6.28416149,9.99611801 L6.17236025,9.82220497 L6.43322981,9.82220497 L6.50776398,9.5613354 L6.5947205,9.82220497 L6.85559006,9.82220497 L6.5947205,9.99611801 L6.63198758,10.2445652 Z M5.6257764,2.17003106 L5.71273292,2.41847826 L5.48913043,2.26940994 L5.27795031,2.41847826 L5.36490683,2.17003106 L5.14130435,2.00854037 L5.41459627,2.00854037 L5.48913043,1.76009317 L5.57608696,2.00854037 L5.83695652,2.00854037 L5.6257764,2.17003106 Z M5.6257764,4.44332298 L5.71273292,4.69177019 L5.48913043,4.54270186 L5.27795031,4.69177019 L5.36490683,4.44332298 L5.14130435,4.29425466 L5.41459627,4.29425466 L5.48913043,4.04580745 L5.57608696,4.29425466 L5.83695652,4.29425466 L5.6257764,4.44332298 Z M5.6257764,6.67934783 L5.71273292,6.92779503 L5.5015528,6.77872671 L5.27795031,6.92779503 L5.36490683,6.67934783 L5.12888199,6.51785714 L5.38975155,6.51785714 L5.47670807,6.26940994 L5.55124224,6.51785714 L5.82453416,6.51785714 L5.6257764,6.67934783 Z M5.6257764,9.16381988 L5.41459627,9.00232919 L5.20341615,9.16381988 L5.29037267,8.91537267 L5.10403727,8.75388199 L5.37732919,8.75388199 L5.45186335,8.50543478 L5.53881988,8.75388199 L5.79968944,8.75388199 L5.58850932,8.91537267 L5.6257764,9.16381988 Z M4.61956522,3.35015528 L4.69409938,3.59860248 L4.48291925,3.44953416 L4.27173913,3.59860248 L4.35869565,3.35015528 L4.13509317,3.20108696 L4.40838509,3.20108696 L4.48291925,2.94021739 L4.56987578,3.20108696 L4.83074534,3.20108696 L4.61956522,3.35015528 Z M4.61956522,5.5613354 L4.69409938,5.80978261 L4.48291925,5.66071429 L4.27173913,5.80978261 L4.35869565,5.5613354 L4.13509317,5.39984472 L4.40838509,5.39984472 L4.48291925,5.15139752 L4.56987578,5.39984472 L4.83074534,5.39984472 L4.61956522,5.5613354 Z M4.61956522,7.82220497 L4.69409938,8.07065217 L4.48291925,7.90916149 L4.27173913,8.07065217 L4.35869565,7.82220497 L4.13509317,7.66071429 L4.40838509,7.66071429 L4.48291925,7.41226708 L4.56987578,7.66071429 L4.83074534,7.66071429 L4.61956522,7.82220497 Z M4.69409938,10.2197205 L4.48291925,10.0706522 L4.27173913,10.2197205 L4.35869565,9.97127329 L4.13509317,9.82220497 L4.40838509,9.82220497 L4.48291925,9.5613354 L4.56987578,9.82220497 L4.83074534,9.82220497 L4.61956522,9.99611801 L4.69409938,10.2197205 Z M3.6878882,4.43090062 L3.76242236,4.67934783 L3.55124224,4.51785714 L3.34006211,4.67934783 L3.41459627,4.43090062 L3.20341615,4.26940994 L3.43944099,4.26940994 L3.51397516,4.02096273 L3.60093168,4.26940994 L3.86180124,4.26940994 L3.6878882,4.43090062 Z M3.6878882,6.65450311 L3.77484472,6.90295031 L3.5636646,6.75388199 L3.34006211,6.90295031 L3.42701863,6.65450311 L3.21583851,6.50543478 L3.47670807,6.50543478 L3.5015528,6.26940994 L3.57608696,6.5302795 L3.83695652,6.5302795 L3.6878882,6.65450311 Z M3.6878882,9.13897516 L3.47670807,8.98990683 L3.26552795,9.13897516 L3.34006211,8.89052795 L3.12888199,8.75388199 L3.38975155,8.75388199 L3.47670807,8.50543478 L3.5636646,8.75388199 L3.82453416,8.75388199 L3.61335404,8.91537267 L3.6878882,9.13897516 Z M8.35869565,0.989906832 L8.44565217,0.741459627 L8.52018634,0.989906832 L8.79347826,0.989906832 L8.56987578,1.13897516 L8.6568323,1.39984472 L8.44565217,1.30046584 L8.22204969,1.46195652 L8.30900621,1.20108696 L8.09782609,1.05201863 L8.35869565,0.989906832 Z M10.3338509,7.66071429 L10.4208075,7.41226708 L10.507764,7.66071429 L10.7686335,7.66071429 L10.5574534,7.82220497 L10.6319876,8.07065217 L10.4208075,7.90916149 L10.2096273,8.07065217 L10.2841615,7.82220497 L10.0729814,7.66071429 L10.3338509,7.66071429 Z M10.3338509,5.39984472 L10.4208075,5.15139752 L10.507764,5.39984472 L10.7686335,5.39984472 L10.5574534,5.5613354 L10.6319876,5.80978261 L10.4208075,5.66071429 L10.2096273,5.80978261 L10.2841615,5.5613354 L10.0729814,5.39984472 L10.3338509,5.39984472 Z M10.3338509,3.20108696 L10.4208075,2.94021739 L10.507764,3.20108696 L10.7686335,3.20108696 L10.5574534,3.35015528 L10.6319876,3.59860248 L10.4208075,3.44953416 L10.2096273,3.59860248 L10.2841615,3.35015528 L10.0729814,3.20108696 L10.3338509,3.20108696 Z M10.3338509,0.989906832 L10.4208075,0.741459627 L10.507764,0.989906832 L10.7686335,0.989906832 L10.5574534,1.13897516 L10.6319876,1.39984472 L10.4208075,1.30046584 L10.2096273,1.46195652 L10.2841615,1.20108696 L10.0729814,1.05201863 L10.3338509,0.989906832 Z M2.64440994,5.5613354 L2.7189441,5.80978261 L2.50776398,5.66071429 L2.29658385,5.80978261 L2.37111801,5.5613354 L2.15993789,5.39984472 L2.44565217,5.39984472 L2.5326087,5.15139752 L2.60714286,5.39984472 L2.88043478,5.39984472 L2.64440994,5.5613354 Z M2.64440994,7.82220497 L2.7189441,8.07065217 L2.50776398,7.90916149 L2.29658385,8.07065217 L2.37111801,7.82220497 L2.15993789,7.66071429 L2.44565217,7.66071429 L2.5326087,7.41226708 L2.60714286,7.66071429 L2.88043478,7.66071429 L2.64440994,7.82220497 Z M2.7189441,10.2197205 L2.50776398,10.0706522 L2.29658385,10.2197205 L2.37111801,9.97127329 L2.15993789,9.82220497 L2.44565217,9.82220497 L2.5326087,9.5613354 L2.60714286,9.82220497 L2.88043478,9.82220497 L2.64440994,9.99611801 L2.7189441,10.2197205 Z M1.65062112,6.61723602 L1.72515528,6.86568323 L1.51397516,6.71661491 L1.30279503,6.86568323 L1.37732919,6.61723602 L1.20341615,6.4681677 L1.47670807,6.4681677 L1.51397516,6.26940994 L1.60093168,6.5302795 L1.86180124,6.5302795 L1.65062112,6.61723602 Z M1.71273292,9.10170807 L1.5015528,8.94021739 L1.27795031,9.10170807 L1.36490683,8.85326087 L1.20341615,8.66692547 L1.46428571,8.66692547 L1.55124224,8.41847826 L1.6257764,8.66692547 L1.88664596,8.66692547 L1.67546584,8.82841615 L1.71273292,9.10170807 Z M0.74378882,10.2445652 L0.532608696,10.0954969 L0.309006211,10.2445652 L0.395962733,9.99611801 L0.184782609,9.84704969 L0.445652174,9.84704969 L0.532608696,9.58618012 L0.607142857,9.84704969 L0.868012422,9.84704969 L0.656832298,9.99611801 L0.74378882,10.2445652 Z M11.3897516,0.207298137 L10.4704969,0.0582298137 L8.6568323,0.170031056 C6.83737272,0.40193209 5.11758482,1.13284195 3.6878882,2.2818323 L3.6878882,2.39363354 L3.6878882,2.33152174 C3.3539142,2.59522711 3.04229551,2.88607122 2.75621118,3.20108696 L2.9052795,3.20108696 L2.69409938,3.35015528 L2.76863354,3.59860248 L2.55745342,3.44953416 L2.44565217,3.51164596 C2.24689441,3.73524845 2.06055901,3.98369565 1.8742236,4.23214286 L1.73757764,4.41847826 L1.73757764,4.5923913 L1.61335404,4.51785714 C0.997133458,5.46858295 0.551527653,6.51954004 0.296583851,7.6234472 L0.458074534,7.6234472 L0.545031056,7.375 L0.619565217,7.6234472 L0.880434783,7.6234472 L0.669254658,7.78493789 L0.75621118,8.03338509 L0.545031056,7.87189441 L0.321428571,8.03338509 L0.408385093,7.78493789 L0.284161491,7.68555901 C0.0401800072,8.68885638 -0.0395289857,9.72507329 0.048136646,10.753882 L11.3897516,10.753882 L11.3897516,0.207298137 Z" id="形状" fill="#073470"></path>
                </g>
            </g>
        </g>
    </g>
</svg>